<svg width="47" height="55" viewBox="0 0 47 55" fill="none" xmlns="http://www.w3.org/2000/svg">
<g clip-path="url(#clip0_311_2946)">
<path d="M19.8838 19.8989C18.0199 18.3443 18.3075 12.0308 17.7924 16.6434C17.0333 23.4288 29.7767 29.3857 30.4502 37.6763C35.0881 28.3486 20.6865 21.7644 20.186 13.5927C20.115 12.4496 20.7957 10.5841 20.9595 10.2732C19.456 11.6632 19.2249 13.333 18.8881 15.1674C18.7189 16.0947 19.0793 18.7942 19.8838 19.8989Z" fill="#39B54A"/>
<path d="M20.96 10.2764L20.9959 10.242C20.9959 10.2203 20.9815 10.242 20.96 10.2764Z" fill="#39B54A"/>
<path d="M22.0249 10.5932C21.9012 12.0436 22.7257 14.6809 22.5291 14.1359C22.44 13.8871 21.417 13.1812 21.5317 9.80127C21.1084 10.6927 20.8907 11.6686 20.8946 12.6563C20.8946 19.9062 29.9284 24.2957 30.995 30.2781C34.2496 22.0387 20.6325 14.3316 23.6631 6.8457C23.9143 6.20191 22.2452 7.87905 22.0249 10.5932Z" fill="#39B54A"/>
<path d="M38.1446 12.9197C40.9542 15.547 43.0119 18.8828 44.1035 22.58C45.1951 26.2772 45.2808 30.2008 44.3517 33.9426C43.4226 37.6844 41.5125 41.1077 38.8203 43.8563C36.1281 46.605 32.7521 48.5785 29.0434 49.5717C30.4869 48.0866 31.3205 46.1406 31.2077 43.7045C30.5797 30.0496 16.3201 25.8064 17.2757 15.9448C17.3376 15.3028 16.2982 17.7481 16.1835 19.9245C16.0325 23.0337 17.4195 25.6308 19.0049 27.3903C17.2666 26.3277 16.2746 24.5883 15.5155 22.5289C14.9695 28.4108 25.676 35.0737 25.676 42.2815C25.676 44.992 24.5548 48.6975 21.1437 50.1753C17.0535 49.7248 13.1781 48.1034 9.97861 45.5039C6.77907 42.9043 4.38999 39.436 3.09555 35.5116C1.80112 31.5871 1.65579 27.3716 2.67688 23.3666C3.69796 19.3615 5.84247 15.7355 8.85533 12.9197C5.04358 15.9713 2.27036 20.1382 0.91962 24.8434C-0.431121 29.5486 -0.292554 34.5594 1.31614 39.182C2.92483 43.8046 5.92405 47.8104 9.89856 50.6446C13.8731 53.4788 18.6262 55.0013 23.4999 55.0013C28.3737 55.0013 33.1268 53.4788 37.1013 50.6446C41.0758 47.8104 44.0751 43.8046 45.6837 39.182C47.2924 34.5594 47.431 29.5486 46.0803 24.8434C44.7295 20.1382 41.9563 15.9713 38.1446 12.9197Z" fill="#39B54A"/>
<path d="M14.1742 31.5437C15.6103 32.0229 16.7225 31.8693 17.2103 31.8675C18.0531 31.8675 15.3664 28.7583 10.2734 30.5104C10.4209 30.7043 10.6593 30.6604 10.8577 30.8012C12.3849 31.8858 13.6318 33.8153 15.4957 33.8098C16.1983 33.8098 16.7698 33.6598 17.5197 32.1528C17.3486 32.1528 17.1775 32.1674 17.0083 32.1674C16.063 32.1524 15.1237 32.0135 14.2142 31.7541C14.021 31.6925 13.8447 31.5867 13.6991 31.445C13.8608 31.4587 14.0203 31.4918 14.1742 31.5437Z" fill="#39B54A"/>
<path d="M27.5304 8.38206C27.669 8.23277 27.8404 8.11815 28.031 8.04737C28.0619 8.06017 27.7707 8.41316 27.7434 8.43876C26.7059 9.54527 26.3928 10.6079 26.178 11.0706C25.8285 11.8406 29.7639 10.6829 30.299 5.30029C30.0624 5.35333 30.0023 5.58927 29.7912 5.71181C28.1748 6.65371 25.9104 6.99207 25.1368 8.69298C24.8456 9.33494 24.74 9.92386 25.7921 11.2334C26.2126 10.1939 26.7998 9.23064 27.5304 8.38206Z" fill="#39B54A"/>
<path d="M13.1288 22.5417C13.9006 22.8801 12.6865 18.946 7.32227 18.4924C7.37869 18.7302 7.61532 18.7869 7.74092 18.9954C8.70382 20.6049 9.07332 22.8746 10.7807 23.6263C11.4251 23.9079 12.0112 24.0049 13.2981 22.9258C12.2568 22.5203 11.2889 21.9457 10.433 21.2249C10.2806 21.0906 10.161 20.9229 10.0835 20.7347C10.0981 20.7018 10.4476 20.9889 10.4804 21.0164C11.6034 22.0351 12.6755 22.3424 13.1288 22.5417Z" fill="#39B54A"/>
<path d="M12.2486 17.7682C12.7946 18.2163 13.3279 18.4724 14.8606 17.792C13.9705 17.114 13.1975 16.2934 12.5726 15.3632C12.4649 15.1912 12.3982 14.9965 12.3778 14.7944C12.3996 14.7688 12.6581 15.1419 12.6799 15.1766C13.4808 16.4569 14.4274 17.0568 14.8096 17.3713C15.4576 17.92 15.3702 13.7939 10.3373 11.8717C10.3264 12.1168 10.5394 12.2375 10.6013 12.4716C11.08 14.2896 10.8124 16.5739 12.2486 17.7682Z" fill="#39B54A"/>
<path d="M39.4027 26.2032C39.2571 26.0094 39.0186 26.0533 38.8184 25.9124C37.2931 24.8279 36.0462 22.8983 34.1823 22.9038C33.4797 22.9038 32.9081 23.0538 32.1582 24.5608C33.9511 24.4657 35.9807 24.9888 35.9807 25.2686C35.8188 25.2551 35.6592 25.2213 35.5056 25.1681C34.0676 24.6907 32.9573 24.8443 32.4676 24.8443C31.6249 24.848 34.3115 27.9572 39.4027 26.2032Z" fill="#39B54A"/>
<path d="M29.6491 19.2587C31.3984 20.6762 34.1687 19.8458 35.4738 18.3315C32.9601 17.4902 32.5324 16.9982 31.5968 16.9982C30.5046 16.9982 29.4562 17.6913 29.4962 18.9167C30.2079 18.7192 30.9524 18.4869 31.7278 18.4869C33.437 18.4869 30.3972 18.9076 29.6491 19.2587Z" fill="#39B54A"/>
<path d="M27.4193 13.269C26.7367 14.0957 26.5692 15.354 27.5467 16.1203C27.8488 15.4418 28.1492 14.7194 28.6388 14.1085C29.7309 12.7935 28.0927 15.418 27.8961 16.2154C30.0986 15.7692 31.2326 13.1062 30.9123 11.1145C28.6679 12.5283 28.0163 12.5466 27.4193 13.269Z" fill="#39B54A"/>
<path d="M26.3188 5.94955C26.3188 5.207 26.2897 4.42422 26.5008 3.67252C26.9486 2.02647 26.55 5.08629 26.6829 5.89834C28.5049 4.57236 28.4376 1.67165 27.329 0C25.8601 2.21485 25.2758 2.50017 25.0283 3.40732C24.7552 4.4425 25.1193 5.65875 26.3188 5.94955Z" fill="#39B54A"/>
<path d="M4.00391 22.6058C4.99775 24.5591 4.9668 25.095 5.51651 25.64C6.16815 26.2838 7.18384 26.4649 7.85368 25.7314C7.32217 25.4333 6.75062 25.137 6.29557 24.6871C5.29445 23.6995 7.32763 25.2212 7.96471 25.4443C7.74447 23.5934 5.64211 22.4778 4.00391 22.6058Z" fill="#39B54A"/>
<path d="M14.3799 26.8288C13.4461 25.2211 11.0725 25.0456 9.61816 25.8247C11.3073 27.2129 11.493 27.7176 12.2138 27.992C13.0274 28.3047 14.054 28.1127 14.3981 27.1342C13.7919 27.0775 13.1512 27.0355 12.5524 26.8068C11.2418 26.3057 13.7118 26.8855 14.3799 26.8288Z" fill="#39B54A"/>
<path d="M15.7762 9.60926C15.241 9.3148 14.6695 9.024 14.2108 8.57408C13.2042 7.59193 15.2447 9.10264 15.8854 9.32394C15.6542 7.47854 13.55 6.36837 11.9082 6.50554C12.913 8.45337 12.8838 8.99108 13.4372 9.53061C14.0706 10.1488 15.0881 10.3646 15.7762 9.60926Z" fill="#39B54A"/>
<path d="M7.82681 35.6644C7.49008 35.994 7.10971 36.2752 6.69646 36.5003C5.74994 36.9557 7.33535 35.9077 7.65571 35.5126C6.30693 35.1926 4.9818 36.3942 4.65234 37.5885C6.27416 37.3855 6.64367 37.5446 7.16425 37.294C7.76675 37.0087 8.17994 36.3466 7.82681 35.6644Z" fill="#39B54A"/>
<path d="M9.62891 33.016C9.15988 33.0422 8.6895 33.0034 8.23098 32.9008C7.21893 32.6192 9.09922 32.8734 9.59978 32.7892C8.79161 31.6571 7.00779 31.6919 5.97754 32.3723C7.33361 33.2867 7.50653 33.6525 8.06352 33.808C8.69513 33.9854 9.44507 33.7677 9.62891 33.016Z" fill="#39B54A"/>
<path d="M13.1361 35.3809C12.7677 35.7659 12.3488 36.0988 11.891 36.3704C10.839 36.9191 12.59 35.6735 12.9359 35.2163C11.3978 34.9054 9.95069 36.3137 9.62305 37.6799C11.4433 37.3873 11.8728 37.5519 12.4517 37.2501C13.1051 36.9062 13.562 36.1454 13.1361 35.3809Z" fill="#39B54A"/>
<path d="M20.0755 34.0623C18.5374 33.7513 17.0903 35.1596 16.7627 36.5258C18.5829 36.2332 19.0125 36.3978 19.5913 36.0942C20.2757 35.7284 20.6835 34.9621 20.2757 34.225C19.9081 34.6107 19.4899 34.9442 19.0325 35.2163C17.9786 35.7668 19.7297 34.5195 20.0755 34.0623Z" fill="#39B54A"/>
<path d="M6.03565 30.2745C6.76374 30.4373 7.59194 30.1446 7.75758 29.2869C7.22882 29.3439 6.69478 29.3279 6.17034 29.2393C5.01086 28.9814 7.15144 29.157 7.71025 29.0308C6.73461 27.7999 4.7178 27.9444 3.59473 28.7766C5.18014 29.7331 5.39857 30.1318 6.03565 30.2745Z" fill="#39B54A"/>
<path d="M39.4058 24.7401C39.9045 24.5565 40.4255 24.4408 40.9548 24.3963C42.1434 24.3633 40.0247 24.7163 39.5132 24.976C40.7637 25.9308 42.6804 25.2961 43.5668 24.2134C41.7958 23.6757 41.4863 23.341 40.8365 23.3611C40.0975 23.3812 39.3548 23.8659 39.4058 24.7401Z" fill="#39B54A"/>
<path d="M39.9141 31.6499C40.5821 33.0747 42.5734 33.4057 43.8567 32.8589C42.5352 31.5585 42.4187 31.1195 41.8308 30.8324C41.1664 30.5068 40.2872 30.591 39.9268 31.3811C40.4543 31.4487 40.97 31.589 41.4594 31.7981C42.5279 32.3285 40.4874 31.6572 39.9141 31.6499Z" fill="#39B54A"/>
<path d="M19.1774 11.0597C20.2823 9.9422 19.9055 7.95048 18.9626 6.92444C18.1982 8.61438 17.8268 8.87775 17.7577 9.53068C17.6812 10.2623 18.0598 11.0688 18.9299 11.1365C18.8141 10.6152 18.7694 10.0805 18.797 9.54714C18.9299 8.36016 18.9881 10.5165 19.1774 11.0597Z" fill="#39B54A"/>
<path d="M19.5439 5.54905C19.1926 5.01317 18.8158 4.46083 18.6065 3.81887C18.1606 2.41607 19.3018 4.8193 19.7842 5.34055C20.4832 3.52441 19.0761 1.45587 17.4962 0.768188C17.4671 3.06168 17.1776 3.54453 17.4234 4.31634C17.7146 5.23447 18.5665 5.9002 19.5439 5.54905Z" fill="#39B54A"/>
<path d="M21.9247 2.22034C22.1067 2.76902 22.6382 3.20065 23.2662 2.96472C23.0163 2.6367 22.8118 2.27616 22.6583 1.89296C22.3616 1.02055 23.106 2.50931 23.4155 2.82938C23.8287 1.68446 22.924 0.409683 21.9247 0C21.9375 1.43572 21.7627 1.74115 21.9247 2.22034Z" fill="#39B54A"/>
<path d="M7.52637 15.2698C8.33091 16.4604 8.35457 16.8079 8.75684 17.1152C9.21372 17.4645 9.89084 17.5304 10.2822 16.9835C9.89526 16.8507 9.52791 16.6662 9.19005 16.4348C8.46196 15.8752 9.90358 16.6964 10.3368 16.7896C10.0419 15.6063 8.58392 15.0503 7.52637 15.2698Z" fill="#39B54A"/>
<path d="M21.7755 6.95917C21.7372 6.54783 21.7543 6.13318 21.8265 5.72646C22.0376 4.83028 21.8811 6.48913 21.9721 6.92442C22.9295 6.17638 22.8385 4.61263 22.2087 3.73291C21.4588 4.95282 21.1493 5.11925 21.0329 5.61306C20.9018 6.17455 21.1148 6.82383 21.7755 6.95917Z" fill="#39B54A"/>
<path d="M31.7497 8.29247C31.7942 7.75775 31.9112 7.23163 32.0974 6.72873C32.5725 5.63136 31.99 7.71636 32.0082 8.29247C33.4025 7.5609 33.6464 5.53626 33.0439 4.2688C31.8043 5.65697 31.3693 5.79597 31.109 6.39952C30.8105 7.0872 30.9434 7.96509 31.7497 8.29247Z" fill="#39B54A"/>
<path d="M32.5677 11.3395C32.8428 10.8805 33.1783 10.461 33.5652 10.0922C34.4753 9.3167 33.0373 10.9298 32.7988 11.4566C34.3715 11.4145 35.4782 9.70809 35.4946 8.30164C33.7727 8.99846 33.3231 8.93079 32.8225 9.35694C32.2328 9.85258 31.9998 10.703 32.5677 11.3395Z" fill="#39B54A"/>
<path d="M15.2129 14.2438C15.6625 14.8784 16.4871 15.1857 17.1569 14.6717C16.7252 14.3564 16.3382 13.9835 16.0065 13.5634C15.3167 12.5886 16.7911 14.1651 17.2916 14.4486C17.3881 12.8702 15.7918 11.6174 14.3975 11.4784C14.9399 13.2616 14.8343 13.706 15.2129 14.2438Z" fill="#39B54A"/>
<path d="M31.9307 14.6096C32.5059 14.4925 33.1065 14.3517 33.7218 14.3956C35.0687 14.4907 32.6296 14.6535 32.029 14.8894C33.3322 16.1075 35.5711 15.6063 36.6942 14.4815C34.752 13.675 34.4408 13.2616 33.6999 13.2013C32.8535 13.1501 31.9725 13.6219 31.9307 14.6096Z" fill="#39B54A"/>
<path d="M36.4316 17.4627C36.8817 17.2399 37.36 17.0799 37.8532 16.9872C38.9654 16.8409 37.0104 17.3804 36.5572 17.6731C37.8204 18.4467 39.5606 17.6731 40.2868 16.5611C38.574 16.23 38.25 15.9447 37.6402 16.027C36.9504 16.1203 36.3024 16.6525 36.4316 17.4627Z" fill="#39B54A"/>
<path d="M36.5577 30.0715C37.8209 30.8451 39.5611 30.0715 40.2874 28.9595C38.5745 28.6284 38.2505 28.345 37.6407 28.4254C36.9454 28.5187 36.3011 29.0473 36.4321 29.8611C36.8823 29.639 37.3606 29.4796 37.8537 29.3875C38.9659 29.2393 37.0109 29.7788 36.5577 30.0715Z" fill="#39B54A"/>
<path d="M32.085 30.2142C32.5564 31.6243 34.3894 32.1492 35.6526 31.7761C34.5605 30.4135 34.4877 29.9874 33.9689 29.6545C33.3719 29.2723 32.5418 29.2686 32.1232 29.9728C32.6102 30.0905 33.0788 30.2751 33.5157 30.5215C34.4622 31.1341 32.6201 30.2837 32.085 30.2142Z" fill="#39B54A"/>
<path d="M38.4212 19.6501C37.3782 19.7562 36.4645 20.5207 36.6174 21.662C37.2708 21.4059 37.9516 21.1133 38.6852 21.0438C40.2924 20.8828 37.4565 21.5687 36.7885 21.9692C38.5705 23.1416 41.1079 22.0954 42.2055 20.5408C39.7555 19.9848 39.304 19.5697 38.4212 19.6501Z" fill="#39B54A"/>
</g>
<defs>
<clipPath id="clip0_311_2946">
<rect width="47" height="55" fill="white"/>
</clipPath>
</defs>
</svg>
